<svg xmlns="http://www.w3.org/2000/svg" width="384pt" height="384pt" viewBox="0 0 384 384" version="1.1" class="iconadda">
<g id="animate_0" transform="rotate(0,192,192) translate(0,0) scale(1.0,1.0)">
<g id="animate_1" style="transform-origin: 54.0645px 191.336px;"><path style="stroke-width: 15; stroke-linecap: round; stroke-linejoin: round; stroke-opacity: 1; stroke-miterlimit: 4;" d="M 87.46875 288.817708 L 42.536458 288.817708 M 101.635417 221.411458 L 42.536458 221.411458 " transform="matrix(0.75,0,0,0.75,0,0)" id="animate_2" stroke="#ffbc5e" data-original="#000000" fill="none" stroke-width="15px" class=""></path>
</g><g id="animate_3" style="transform-origin: 37.25px 291.969px;"><path style="stroke-width: 15; stroke-linecap: round; stroke-linejoin: round; stroke-opacity: 1; stroke-miterlimit: 4;" d="M 72.166667 389.291667 C 72.166667 401.71875 62.09375 411.791667 49.666667 411.791667 C 37.239583 411.791667 27.166667 401.71875 27.166667 389.291667 C 27.166667 376.869792 37.239583 366.791667 49.666667 366.791667 C 62.09375 366.791667 72.166667 376.869792 72.166667 389.291667 " transform="matrix(0.75,0,0,0.75,0,0)" id="animate_4" stroke="#ffbc5e" data-original="#000000" fill="none" stroke-width="15px" class=""></path>
</g><g id="animate_5" style="transform-origin: 18.4023px 216.613px;"><path style="stroke-width: 15; stroke-linecap: round; stroke-linejoin: round; stroke-opacity: 1; stroke-miterlimit: 4;" d="M 41.572917 288.817708 C 41.572917 298.229167 33.947917 305.854167 24.536458 305.854167 C 15.130208 305.854167 7.5 298.229167 7.5 288.817708 C 7.5 279.40625 15.130208 271.78125 24.536458 271.78125 C 33.947917 271.78125 41.572917 279.40625 41.572917 288.817708 " transform="matrix(0.75,0,0,0.75,0,0)" id="animate_6" stroke="#ffbc5e" data-original="#000000" fill="none" stroke-width="15px" class=""></path>
</g><g id="animate_7" style="transform-origin: 18.4023px 166.059px;"><path style="stroke-width: 15; stroke-linecap: round; stroke-linejoin: round; stroke-opacity: 1; stroke-miterlimit: 4;" d="M 41.572917 221.411458 C 41.572917 230.817708 33.947917 238.447917 24.536458 238.447917 C 15.130208 238.447917 7.5 230.817708 7.5 221.411458 C 7.5 212 15.130208 204.375 24.536458 204.375 C 33.947917 204.375 41.572917 212 41.572917 221.411458 " transform="matrix(0.75,0,0,0.75,0,0)" id="animate_8" stroke="#ffbc5e" data-original="#000000" fill="none" stroke-width="15px" class=""></path>
</g><g id="animate_9" style="transform-origin: 64.8027px 270.725px;"><path style="stroke-width: 15; stroke-linecap: round; stroke-linejoin: round; stroke-opacity: 1; stroke-miterlimit: 4;" d="M 105.645833 350.130208 L 95.208333 350.130208 C 91.125 350.130208 87.203125 351.755208 84.3125 354.645833 L 67.161458 371.802083 " transform="matrix(0.75,0,0,0.75,0,0)" id="animate_10" stroke="#ffbc5e" data-original="#000000" fill="none" stroke-width="15px" class=""></path>
</g><g id="animate_11" style="transform-origin: 37.25px 92.0312px;"><path style="stroke-width: 15; stroke-linecap: round; stroke-linejoin: round; stroke-opacity: 1; stroke-miterlimit: 4;" d="M 72.166667 122.708333 C 72.166667 135.130208 62.09375 145.208333 49.666667 145.208333 C 37.239583 145.208333 27.166667 135.130208 27.166667 122.708333 C 27.166667 110.28125 37.239583 100.208333 49.666667 100.208333 C 62.09375 100.208333 72.166667 110.28125 72.166667 122.708333 " transform="matrix(0.75,0,0,0.75,0,0)" id="animate_12" stroke="#ffbc5e" data-original="#000000" fill="none" stroke-width="15px" class=""></path>
</g><g id="animate_13" style="transform-origin: 201.066px 161.379px;"><path style="stroke-width: 15; stroke-linecap: round; stroke-linejoin: round; stroke-opacity: 1; stroke-miterlimit: 4;" d="M 124.661458 161.869792 L 95.208333 161.869792 C 91.125 161.869792 87.203125 160.244792 84.3125 157.354167 L 66.713542 139.755208 M 408.916667 223.182292 L 469.463542 223.182292 M 422.703125 290.588542 L 469.463542 290.588542 " transform="matrix(0.75,0,0,0.75,0,0)" id="animate_14" stroke="#ffbc5e" data-original="#000000" fill="none" stroke-width="15px" class=""></path>
</g><g id="animate_15" style="transform-origin: 346.75px 92.0312px;"><path style="stroke-width: 15; stroke-linecap: round; stroke-linejoin: round; stroke-opacity: 1; stroke-miterlimit: 4;" d="M 484.833333 122.708333 C 484.833333 135.130208 474.760417 145.208333 462.333333 145.208333 C 449.90625 145.208333 439.833333 135.130208 439.833333 122.708333 C 439.833333 110.28125 449.90625 100.208333 462.333333 100.208333 C 474.760417 100.208333 484.833333 110.28125 484.833333 122.708333 " transform="matrix(0.75,0,0,0.75,0,0)" id="animate_16" stroke="#ffbc5e" data-original="#000000" fill="none" stroke-width="15px" class=""></path>
</g><g id="animate_17" style="transform-origin: 365.598px 167.387px;"><path style="stroke-width: 15; stroke-linecap: round; stroke-linejoin: round; stroke-opacity: 1; stroke-miterlimit: 4;" d="M 504.5 223.182292 C 504.5 232.59375 496.869792 240.21875 487.463542 240.21875 C 478.052083 240.21875 470.427083 232.59375 470.427083 223.182292 C 470.427083 213.770833 478.052083 206.145833 487.463542 206.145833 C 496.869792 206.145833 504.5 213.770833 504.5 223.182292 " transform="matrix(0.75,0,0,0.75,0,0)" id="animate_18" stroke="#ffbc5e" data-original="#000000" fill="none" stroke-width="15px" class=""></path>
</g><g id="animate_19" style="transform-origin: 365.598px 217.941px;"><path style="stroke-width: 15; stroke-linecap: round; stroke-linejoin: round; stroke-opacity: 1; stroke-miterlimit: 4;" d="M 504.5 290.588542 C 504.5 300 496.869792 307.625 487.463542 307.625 C 478.052083 307.625 470.427083 300 470.427083 290.588542 C 470.427083 281.182292 478.052083 273.552083 487.463542 273.552083 C 496.869792 273.552083 504.5 281.182292 504.5 290.588542 " transform="matrix(0.75,0,0,0.75,0,0)" id="animate_20" stroke="#ffbc5e" data-original="#000000" fill="none" stroke-width="15px" class=""></path>
</g><g id="animate_21" style="transform-origin: 312.068px 113.23px;"><path style="stroke-width: 15; stroke-linecap: round; stroke-linejoin: round; stroke-opacity: 1; stroke-miterlimit: 4;" d="M 387.213542 161.869792 L 416.791667 161.869792 C 420.880208 161.869792 424.796875 160.244792 427.6875 157.359375 L 444.96875 140.078125 " transform="matrix(0.75,0,0,0.75,0,0)" id="animate_22" stroke="#ffbc5e" data-original="#000000" fill="none" stroke-width="15px" class=""></path>
</g><g id="animate_23" style="transform-origin: 346.75px 291.969px;"><path style="stroke-width: 15; stroke-linecap: round; stroke-linejoin: round; stroke-opacity: 1; stroke-miterlimit: 4;" d="M 484.833333 389.291667 C 484.833333 401.71875 474.760417 411.791667 462.333333 411.791667 C 449.90625 411.791667 439.833333 401.71875 439.833333 389.291667 C 439.833333 376.869792 449.90625 366.791667 462.333333 366.791667 C 474.760417 366.791667 484.833333 376.869792 484.833333 389.291667 " transform="matrix(0.75,0,0,0.75,0,0)" id="animate_24" stroke="#ffbc5e" data-original="#000000" fill="none" stroke-width="15px" class=""></path>
</g><g id="animate_25" style="transform-origin: 319.199px 270.723px;"><path style="stroke-width: 15; stroke-linecap: round; stroke-linejoin: round; stroke-opacity: 1; stroke-miterlimit: 4;" d="M 406.354167 350.130208 L 416.791667 350.130208 C 420.880208 350.130208 424.796875 351.755208 427.6875 354.640625 L 444.84375 371.796875 " transform="matrix(0.75,0,0,0.75,0,0)" id="animate_26" stroke="#ffbc5e" data-original="#000000" fill="none" stroke-width="15px" class=""></path>
</g><g id="animate_27" style="transform-origin: 191.748px 192px;"><path style="stroke-width: 15; stroke-linecap: round; stroke-linejoin: round; stroke-opacity: 1; stroke-miterlimit: 10;" d="M 419.078125 240.078125 C 415.71875 234.838542 411.395833 230.276042 406.348958 226.65625 L 406.359375 226.645833 L 406.359375 226.651042 C 408.765625 221.526042 410.010417 215.932292 410.010417 210.270833 C 410.010417 193.609375 399.421875 179.421875 384.609375 174.0625 C 385.401042 171.682292 385.828125 169.140625 385.828125 166.494792 C 385.828125 153.203125 375.057292 142.432292 361.765625 142.432292 C 360.145833 142.432292 358.557292 142.604167 357.026042 142.901042 C 357.026042 142.739583 357.036458 142.588542 357.036458 142.432292 C 357.036458 121.171875 339.807292 103.942708 318.546875 103.942708 C 317.557292 103.942708 316.588542 103.984375 315.614583 104.052083 C 311.140625 89.541667 297.630208 79 281.651042 79 C 271.5625 79 262.46875 83.197917 256 89.9375 C 249.53125 83.197917 240.4375 79 230.348958 79 C 214.369792 79 200.859375 89.541667 196.380208 104.052083 C 195.411458 103.984375 194.442708 103.942708 193.447917 103.942708 C 172.1875 103.942708 154.958333 121.171875 154.958333 142.432292 C 154.958333 142.59375 154.96875 142.744792 154.96875 142.901042 C 153.4375 142.598958 151.848958 142.432292 150.229167 142.432292 C 136.9375 142.432292 126.166667 153.203125 126.166667 166.494792 C 126.166667 169.145833 126.598958 171.682292 127.385417 174.0625 C 112.572917 179.421875 101.984375 193.614583 101.984375 210.270833 C 101.984375 216.130208 103.302083 221.682292 105.635417 226.651042 L 105.645833 226.661458 C 93.276042 235.552083 85.208333 250.052083 85.208333 266.442708 C 85.208333 284.041667 94.510417 299.473958 108.447917 308.104167 L 108.447917 308.098958 C 104.229167 314.416667 101.979167 321.84375 101.989583 329.4375 C 101.989583 348.75 116.208333 364.729167 134.739583 367.5 C 137.130208 378.28125 146.729167 386.348958 158.229167 386.348958 C 160.838542 386.348958 163.348958 385.927083 165.697917 385.161458 C 165.645833 385.989583 165.630208 386.833333 165.630208 387.671875 C 165.630208 393.369792 166.682292 398.822917 168.609375 403.854167 M 193.151042 429.369792 C 198.78125 431.770833 204.838542 433.005208 210.958333 433 C 234.276042 433 253.489583 415.380208 256 392.71875 C 258.510417 415.380208 277.71875 433 301.041667 433 C 326.083333 433 346.369792 412.697917 346.369792 387.671875 C 346.369792 386.833333 346.348958 385.989583 346.302083 385.161458 C 348.651042 385.932292 351.161458 386.348958 353.770833 386.348958 C 365.270833 386.348958 374.869792 378.28125 377.260417 367.5 C 395.791667 364.729167 410.010417 348.75 410.010417 329.4375 C 410.010417 321.536458 407.630208 314.208333 403.552083 308.098958 C 415.291667 300.828125 423.739583 288.739583 426.119792 274.588542 " transform="matrix(0.75,0,0,0.75,0,0)" id="animate_28" stroke="#ffbc5e" data-original="#000000" fill="none" stroke-width="15px" class=""></path>
</g><g id="animate_29" style="transform-origin: 190.951px 180.996px;"><path style="stroke-width: 15; stroke-linecap: round; stroke-linejoin: round; stroke-opacity: 1; stroke-miterlimit: 10;" d="M 105.645833 226.651042 C 112.276042 221.885417 119.994792 218.859375 128.098958 217.859375 M 140.046875 346.53125 C 136.25 350.901042 134.161458 356.5 134.171875 362.286458 C 134.171875 363.947917 134.338542 365.567708 134.661458 367.135417 M 165.703125 385.161458 C 170.791667 383.494792 175.177083 380.182292 178.171875 375.739583 M 371.953125 346.53125 C 375.75 350.901042 377.838542 356.5 377.828125 362.286458 C 377.833333 363.916667 377.666667 365.541667 377.338542 367.135417 M 346.296875 385.161458 C 341.208333 383.494792 336.822917 380.182292 333.828125 375.739583 M 128.098958 315.026042 C 121.125 314.166667 114.421875 311.802083 108.442708 308.104167 M 383.901042 315.026042 C 390.875 314.166667 397.578125 311.802083 403.557292 308.104167 M 256 392.71875 L 256 240.682292 M 256 205.682292 L 256 89.9375 M 196.380208 104.052083 L 196.322917 104.28125 C 194.458333 111.890625 195.708333 119.927083 199.796875 126.609375 M 255.625 268.046875 C 253.890625 270.520833 251.619792 272.572917 248.989583 274.057292 C 239.203125 279.59375 226.786458 276.145833 221.255208 266.364583 M 215.885417 216.317708 C 216.036458 213.182292 215.484375 210.052083 214.270833 207.151042 C 209.770833 196.364583 197.380208 191.270833 186.59375 195.770833 M 223.104167 125.161458 C 220.703125 123.8125 218.026042 123.015625 215.276042 122.833333 C 205.041667 122.130208 196.177083 129.859375 195.473958 140.09375 M 136.229167 202.510417 C 134.265625 204.442708 132.755208 206.791667 131.8125 209.380208 C 128.291667 219.015625 133.244792 229.682292 142.875 233.203125 " transform="matrix(0.75,0,0,0.75,0,0)" id="animate_30" stroke="#ffbc5e" data-original="#000000" fill="none" stroke-width="15px" class=""></path>
</g><g id="animate_31" style="transform-origin: 149.588px 193.799px;"><path style="stroke-width: 15; stroke-linecap: round; stroke-linejoin: round; stroke-opacity: 1; stroke-miterlimit: 10;" d="M 206.859375 197.401042 L 209.671875 194.0625 C 214.109375 188.791667 215.234375 181.479167 212.578125 175.114583 M 181.322917 333.885417 C 183.375 336.354167 185.953125 338.333333 188.869792 339.677083 C 199.708333 344.692708 212.5625 339.979167 217.578125 329.140625 " transform="matrix(0.75,0,0,0.75,0,0)" id="animate_32" stroke="#ffbc5e" data-original="#000000" fill="none" stroke-width="15px" class=""></path>
</g><g id="animate_33" style="transform-origin: 197.473px 182.038px;"><path style="stroke-width: 15; stroke-linecap: round; stroke-linejoin: round; stroke-opacity: 1; stroke-miterlimit: 10;" d="M 201.1875 341.90625 L 201.375 346.359375 L 201.375 346.364583 C 201.666667 353.401042 205.875 359.6875 212.265625 362.645833 M 256.375 268.046875 C 258.109375 270.520833 260.380208 272.572917 263.010417 274.057292 C 272.796875 279.59375 285.213542 276.145833 290.744792 266.364583 M 296.114583 216.317708 C 295.963542 213.182292 296.515625 210.052083 297.729167 207.151042 C 302.229167 196.364583 314.619792 191.270833 325.40625 195.770833 M 288.895833 125.161458 C 291.296875 123.8125 293.973958 123.015625 296.723958 122.833333 C 306.958333 122.130208 315.822917 129.859375 316.526042 140.09375 " transform="matrix(0.75,0,0,0.75,0,0)" id="animate_34" stroke="#ffbc5e" data-original="#000000" fill="none" stroke-width="15px" class=""></path>
</g><g id="animate_35" style="transform-origin: 234.412px 193.799px;"><path style="stroke-width: 15; stroke-linecap: round; stroke-linejoin: round; stroke-opacity: 1; stroke-miterlimit: 10;" d="M 305.140625 197.401042 L 302.328125 194.0625 C 297.890625 188.791667 296.765625 181.479167 299.421875 175.114583 M 330.677083 333.885417 C 328.625 336.354167 326.046875 338.333333 323.130208 339.677083 C 312.291667 344.692708 299.4375 339.979167 294.421875 329.140625 " transform="matrix(0.75,0,0,0.75,0,0)" id="animate_36" stroke="#ffbc5e" data-original="#000000" fill="none" stroke-width="15px" class=""></path>
</g><g id="animate_37" style="transform-origin: 264.783px 175.012px;"><path style="stroke-width: 15; stroke-linecap: round; stroke-linejoin: round; stroke-opacity: 1; stroke-miterlimit: 10;" d="M 310.8125 341.90625 L 310.625 346.359375 L 310.625 346.364583 C 310.333333 353.401042 306.125 359.6875 299.734375 362.645833 M 406.354167 226.651042 C 399.723958 221.885417 392.005208 218.859375 383.901042 217.859375 M 315.619792 104.052083 L 315.677083 104.28125 C 317.541667 111.890625 316.291667 119.927083 312.203125 126.609375 M 375.770833 202.510417 C 377.734375 204.442708 379.244792 206.791667 380.1875 209.380208 C 383.708333 219.015625 378.755208 229.682292 369.125 233.203125 " transform="matrix(0.75,0,0,0.75,0,0)" id="animate_38" stroke="#ffbc5e" data-original="#000000" fill="none" stroke-width="15px" class=""></path>
</g><g id="animate_39" style="transform-origin: 192px 192px;"><path style="stroke-width: 15; stroke-linecap: round; stroke-linejoin: round; stroke-opacity: 1; stroke-miterlimit: 4;" d="M 293.901042 461.875 L 293.901042 504.5 M 218.098958 461.875 L 218.098958 504.5 M 202.364583 434.916667 L 202.364583 454.151042 L 202.364583 454.145833 C 202.364583 455.479167 202.890625 456.75 203.833333 457.692708 C 204.770833 458.630208 206.046875 459.15625 207.375 459.15625 L 228.822917 459.15625 C 230.151042 459.15625 231.427083 458.630208 232.364583 457.692708 C 233.302083 456.75 233.833333 455.479167 233.833333 454.145833 L 233.833333 428.614583 M 278.166667 428.614583 L 278.166667 454.145833 C 278.166667 455.473958 278.692708 456.75 279.635417 457.6875 C 280.572917 458.630208 281.848958 459.15625 283.177083 459.15625 L 304.625 459.15625 C 305.953125 459.15625 307.229167 458.630208 308.166667 457.6875 C 309.104167 456.75 309.635417 455.473958 309.635417 454.145833 L 309.635417 434.401042 M 218.098958 50.125 L 218.098958 7.5 M 293.901042 50.125 L 293.901042 7.5 M 309.635417 89.130208 L 309.635417 57.854167 C 309.635417 55.088542 307.390625 52.84375 304.625 52.84375 L 283.177083 52.84375 C 280.411458 52.84375 278.166667 55.088542 278.166667 57.854167 L 278.166667 76.109375 M 233.833333 77 L 233.833333 57.854167 C 233.833333 55.088542 231.588542 52.84375 228.822917 52.84375 L 207.375 52.84375 C 204.609375 52.84375 202.364583 55.088542 202.364583 62.958333 L 202.364583 89.9375 " transform="matrix(0.75,0,0,0.75,0,0)" id="animate_40" stroke="#ffbc5e" data-original="#000000" fill="none" stroke-width="15px" class=""></path>
</g></g>
</svg>