<svg xmlns="http://www.w3.org/2000/svg" width="384pt" height="384pt" viewBox="0 0 384 384" version="1.1" class="iconadda">
<g id="animate_0" transform="rotate(0,192,192) translate(0,0) scale(1.0,1.0)">
<g id="animate_1" style="transform-origin: 192px 191.999px;"><path style="stroke-width: 15; stroke-linecap: round; stroke-linejoin: round; stroke-opacity: 1; stroke-miterlimit: 10;" d="M 387.364583 135.859375 L 469.567708 135.895833 C 477.848958 135.895833 484.567708 142.614583 484.557292 150.895833 L 484.427083 454.895833 M 27.46875 361.729167 L 27.557292 150.6875 C 27.567708 142.40625 34.276042 135.697917 42.567708 135.697917 L 124.515625 135.739583 M 27.447917 396.729167 L 27.427083 454.6875 M 367.390625 495.796875 L 474.5 495.796875 C 482.78125 495.796875 490.28125 492.4375 495.708333 487.005208 C 501.140625 481.572917 504.5 474.072917 504.5 465.796875 C 504.5 460.276042 500.020833 455.796875 494.5 455.796875 L 17.5 455.796875 C 14.739583 455.796875 12.239583 456.916667 10.432292 458.729167 C 8.619792 460.541667 7.5 463.041667 7.5 465.796875 C 7.5 482.364583 20.932292 495.796875 37.5 495.796875 L 332.390625 495.796875 M 212.901042 39.4375 C 222.03125 35.276042 230.932292 30.546875 239.520833 25.286458 L 253 17.046875 C 254.838542 15.916667 257.161458 15.916667 259 17.046875 L 272.479167 25.286458 C 299.770833 41.984375 330.020833 53.270833 361.578125 58.53125 L 379.708333 61.552083 C 382.479167 62.020833 384.520833 64.421875 384.520833 67.234375 L 384.520833 174.005208 C 384.520833 229.265625 356.432292 280.734375 309.953125 310.635417 L 259.453125 343.125 L 259.447917 343.119792 C 257.557292 344.333333 255.130208 344.333333 253.239583 343.119792 L 202.380208 310.588542 C 155.71875 280.729167 127.479167 229.151042 127.479167 173.739583 L 127.479167 67.229167 C 127.479167 64.416667 129.520833 62.020833 132.291667 61.546875 L 150.421875 58.526042 C 160.463542 56.854167 170.359375 54.567708 180.083333 51.697917 " transform="matrix(0.75,0,0,0.75,0,0)" id="animate_2" stroke="#ffbc5e" data-original="#000000" fill="none" stroke-width="15px"></path>
</g><g id="animate_3" style="transform-origin: 192px 134.984px;"><path style="stroke-width: 15; stroke-linecap: round; stroke-linejoin: round; stroke-opacity: 1; stroke-miterlimit: 10;" d="M 339.098958 241.197917 C 350.651042 221.109375 356.947917 198.057292 356.947917 174 L 356.947917 85.848958 L 348.359375 84.140625 C 317.708333 78.041667 288.317708 66.776042 261.4375 50.828125 L 256 47.598958 L 250.5625 50.828125 C 223.682292 66.776042 194.291667 78.041667 163.640625 84.140625 L 155.052083 85.848958 L 155.052083 173.739583 C 155.052083 219.96875 178.302083 262.447917 217.239583 287.359375 L 256.307292 312.359375 L 295.036458 287.4375 C 303.395833 282.067708 311.026042 275.875 317.854167 269.015625 " transform="matrix(0.75,0,0,0.75,0,0)" id="animate_4" stroke="#ffbc5e" data-original="#000000" fill="none" stroke-width="15px"></path>
</g><g id="animate_5" style="transform-origin: 152.928px 173.045px;"><path style="stroke-width: 15; stroke-linecap: round; stroke-linejoin: round; stroke-opacity: 1; stroke-miterlimit: 10;" d="M 213.302083 200.723958 L 185.96875 173.390625 L 213.302083 146.057292 M 298.697917 200.723958 L 326.03125 173.390625 L 298.697917 146.057292 M 243.708333 207.427083 L 268.286458 139.348958 M 161.552083 278.197917 L 106.489583 278.197917 C 92.84375 278.197917 81.776042 289.260417 81.776042 302.911458 L 81.776042 322.104167 " transform="matrix(0.75,0,0,0.75,0,0)" id="animate_6" stroke="#ffbc5e" data-original="#000000" fill="none" stroke-width="15px"></path>
</g><g id="animate_7" style="transform-origin: 61.3359px 254.828px;"><path style="stroke-width: 15; stroke-linecap: round; stroke-linejoin: round; stroke-opacity: 1; stroke-miterlimit: 10;" d="M 98.369792 339.770833 C 98.369792 348.932292 90.942708 356.359375 81.78125 356.359375 C 72.619792 356.359375 65.192708 348.932292 65.192708 339.770833 C 65.192708 330.609375 72.619792 323.182292 81.78125 323.182292 C 90.942708 323.182292 98.369792 330.609375 98.369792 339.770833 " transform="matrix(0.75,0,0,0.75,0,0)" id="animate_8" stroke="#ffbc5e" data-original="#000000" fill="none" stroke-width="15px"></path>
</g><g id="animate_9" style="transform-origin: 292.545px 225.113px;"><path style="stroke-width: 15; stroke-linecap: round; stroke-linejoin: round; stroke-opacity: 1; stroke-miterlimit: 10;" d="M 349.895833 278.197917 L 405.510417 278.197917 C 419.15625 278.197917 430.223958 289.260417 430.223958 302.911458 L 430.223958 322.104167 " transform="matrix(0.75,0,0,0.75,0,0)" id="animate_10" stroke="#ffbc5e" data-original="#000000" fill="none" stroke-width="15px"></path>
</g><g id="animate_11" style="transform-origin: 322.664px 254.828px;"><path style="stroke-width: 15; stroke-linecap: round; stroke-linejoin: round; stroke-opacity: 1; stroke-miterlimit: 10;" d="M 446.807292 339.770833 C 446.807292 348.932292 439.380208 356.359375 430.21875 356.359375 C 421.057292 356.359375 413.630208 348.932292 413.630208 339.770833 C 413.630208 330.609375 421.057292 323.182292 430.21875 323.182292 C 439.380208 323.182292 446.807292 330.609375 446.807292 339.770833 " transform="matrix(0.75,0,0,0.75,0,0)" id="animate_12" stroke="#ffbc5e" data-original="#000000" fill="none" stroke-width="15px"></path>
</g><g id="animate_13" style="transform-origin: 299.877px 168.15px;"><path style="stroke-width: 15; stroke-linecap: round; stroke-linejoin: round; stroke-opacity: 1; stroke-miterlimit: 10;" d="M 369.447917 246.151042 L 405.510417 246.151042 C 419.15625 246.151042 430.223958 235.088542 430.223958 221.4375 L 430.223958 202.25 " transform="matrix(0.75,0,0,0.75,0,0)" id="animate_14" stroke="#ffbc5e" data-original="#000000" fill="none" stroke-width="15px"></path>
</g><g id="animate_15" style="transform-origin: 322.664px 138.434px;"><path style="stroke-width: 15; stroke-linecap: round; stroke-linejoin: round; stroke-opacity: 1; stroke-miterlimit: 10;" d="M 446.807292 184.578125 C 446.807292 193.739583 439.380208 201.166667 430.21875 201.166667 C 421.057292 201.166667 413.630208 193.739583 413.630208 184.578125 C 413.630208 175.416667 421.057292 167.989583 430.21875 167.989583 C 439.380208 167.989583 446.807292 175.416667 446.807292 184.578125 " transform="matrix(0.75,0,0,0.75,0,0)" id="animate_16" stroke="#ffbc5e" data-original="#000000" fill="none" stroke-width="15px"></path>
</g><g id="animate_17" style="transform-origin: 83.9551px 168.15px;"><path style="stroke-width: 15; stroke-linecap: round; stroke-linejoin: round; stroke-opacity: 1; stroke-miterlimit: 10;" d="M 142.104167 246.151042 L 106.489583 246.151042 C 92.84375 246.151042 81.776042 235.088542 81.776042 221.4375 L 81.776042 202.25 " transform="matrix(0.75,0,0,0.75,0,0)" id="animate_18" stroke="#ffbc5e" data-original="#000000" fill="none" stroke-width="15px"></path>
</g><g id="animate_19" style="transform-origin: 61.3359px 138.434px;"><path style="stroke-width: 15; stroke-linecap: round; stroke-linejoin: round; stroke-opacity: 1; stroke-miterlimit: 10;" d="M 98.369792 184.578125 C 98.369792 193.739583 90.942708 201.166667 81.78125 201.166667 C 72.619792 201.166667 65.192708 193.739583 65.192708 184.578125 C 65.192708 175.416667 72.619792 167.989583 81.78125 167.989583 C 90.942708 167.989583 98.369792 175.416667 98.369792 184.578125 " transform="matrix(0.75,0,0,0.75,0,0)" id="animate_20" stroke="#ffbc5e" data-original="#000000" fill="none" stroke-width="15px"></path>
</g><g id="animate_21" style="transform-origin: 192px 293.68px;"><path style="stroke-width: 15; stroke-linecap: round; stroke-linejoin: round; stroke-opacity: 1; stroke-miterlimit: 10;" d="M 136.40625 367.145833 L 136.40625 416 M 115.25 403.786458 L 157.5625 379.359375 M 157.5625 403.786458 L 115.25 379.359375 M 216.135417 367.145833 L 216.135417 416 M 194.979167 403.786458 L 237.291667 379.359375 M 237.291667 403.786458 L 194.979167 379.359375 M 295.864583 367.145833 L 295.864583 416 M 274.708333 403.786458 L 317.020833 379.359375 M 317.020833 403.786458 L 274.708333 379.359375 M 375.59375 367.145833 L 375.59375 416 M 354.4375 403.786458 L 396.75 379.359375 M 396.75 403.786458 L 354.4375 379.359375 " transform="matrix(0.75,0,0,0.75,0,0)" id="animate_22" stroke="#ffbc5e" data-original="#000000" fill="none" stroke-width="15px"></path>
</g></g>
</svg>